<svg width="21" height="21" viewBox="0 0 21 21" fill="none" xmlns="http://www.w3.org/2000/svg">
<path d="M10.3 8V5H7.30005V3H10.3V0H12.3V3H15.3V5H12.3V8H10.3ZM6.30005 21C5.75005 21 5.27922 20.8042 4.88755 20.4125C4.49588 20.0208 4.30005 19.55 4.30005 19C4.30005 18.45 4.49588 17.9792 4.88755 17.5875C5.27922 17.1958 5.75005 17 6.30005 17C6.85005 17 7.32088 17.1958 7.71255 17.5875C8.10422 17.9792 8.30005 18.45 8.30005 19C8.30005 19.55 8.10422 20.0208 7.71255 20.4125C7.32088 20.8042 6.85005 21 6.30005 21ZM16.3 21C15.75 21 15.2792 20.8042 14.8875 20.4125C14.4959 20.0208 14.3 19.55 14.3 19C14.3 18.45 14.4959 17.9792 14.8875 17.5875C15.2792 17.1958 15.75 17 16.3 17C16.85 17 17.3209 17.1958 17.7125 17.5875C18.1042 17.9792 18.3 18.45 18.3 19C18.3 19.55 18.1042 20.0208 17.7125 20.4125C17.3209 20.8042 16.85 21 16.3 21ZM0.300049 3V1H3.57505L7.82505 10H14.825L18.725 3H21L16.6 10.95C16.4167 11.2833 16.1709 11.5417 15.8625 11.725C15.5542 11.9083 15.2167 12 14.85 12H7.40005L6.30005 14H18.3V16H6.30005C5.55005 16 4.97922 15.675 4.58755 15.025C4.19588 14.375 4.18338 13.7167 4.55005 13.05L5.90005 10.6L2.30005 3H0.300049Z" fill="#1C1B1F"/>
</svg>
