<svg width="22" height="22" viewBox="0 0 22 22" fill="none" xmlns="http://www.w3.org/2000/svg">
<path d="M10.5 8.5V5.5H7.5V3.5H10.5V0.5H12.5V3.5H15.5V5.5H12.5V8.5H10.5ZM6.5 21.5C5.95 21.5 5.47917 21.3042 5.0875 20.9125C4.69583 20.5208 4.5 20.05 4.5 19.5C4.5 18.95 4.69583 18.4792 5.0875 18.0875C5.47917 17.6958 5.95 17.5 6.5 17.5C7.05 17.5 7.52083 17.6958 7.9125 18.0875C8.30417 18.4792 8.5 18.95 8.5 19.5C8.5 20.05 8.30417 20.5208 7.9125 20.9125C7.52083 21.3042 7.05 21.5 6.5 21.5ZM16.5 21.5C15.95 21.5 15.4792 21.3042 15.0875 20.9125C14.6958 20.5208 14.5 20.05 14.5 19.5C14.5 18.95 14.6958 18.4792 15.0875 18.0875C15.4792 17.6958 15.95 17.5 16.5 17.5C17.05 17.5 17.5208 17.6958 17.9125 18.0875C18.3042 18.4792 18.5 18.95 18.5 19.5C18.5 20.05 18.3042 20.5208 17.9125 20.9125C17.5208 21.3042 17.05 21.5 16.5 21.5ZM0.5 3.5V1.5H3.775L8.025 10.5H15.025L18.925 3.5H21.2L16.8 11.45C16.6167 11.7833 16.3708 12.0417 16.0625 12.225C15.7542 12.4083 15.4167 12.5 15.05 12.5H7.6L6.5 14.5H18.5V16.5H6.5C5.75 16.5 5.17917 16.175 4.7875 15.525C4.39583 14.875 4.38333 14.2167 4.75 13.55L6.1 11.1L2.5 3.5H0.5Z" fill="white"/>
</svg>
