<?xml version="1.0" encoding="UTF-8"?>
<svg id="Capa_1" data-name="Capa 1" xmlns="http://www.w3.org/2000/svg" viewBox="0 0 761.78 676.54">
  <defs>
    <style>
      .cls-1 {
        fill: #544e49;
      }
    </style>
  </defs>
  <path class="cls-1" d="m475.87,431.51c-7.03,14.75-17.19,26.84-16.3,44.6,1.32,26.05.17,52.22.47,78.33.07,6.4-1.58,8.96-8.39,8.63-10.71-.53-21.51-.81-32.17.05-9.03.72-10.42-3.01-10.4-10.95.26-73.34.15-146.68.15-220.02,0-30.41.18-60.82-.14-91.23-.07-6.83,1.73-9.69,8.92-9.4,11.07.45,22.19.5,33.26.01,7.41-.33,8.8,2.91,8.76,9.52-.24,40.42-.15,80.85-.05,121.28,0,3.32-1.24,6.98,1.38,10.25,4.01-2.15,4.63-6.28,6.24-9.64,19.51-40.56,39.1-81.08,58.21-121.83,3.39-7.24,7.57-10.18,15.52-9.62,9.26.65,18.62.63,27.89.03,8.92-.58,10.59,1.47,6.42,9.83-21.05,42.2-41.45,84.71-62.58,126.86-3.87,7.72-4.3,14.15-1.08,22.17,19.56,48.69,38.63,97.59,57.97,146.38,1.27,3.21,1.75,6.98,6.21,10.23,3.83-23.73,7.55-46.68,11.25-69.64,12.71-78.94,25.54-157.86,37.89-236.85,1.2-7.67,4.34-9.12,11.12-9,18.6.34,37.21.37,55.8,0,6.89-.14,9.89,1.55,11.06,9.09,8.71,56.44,18,112.79,27.06,169.18,7.58,47.23,14.86,94.52,22.83,141.69,1.51,8.92.2,12.42-9.49,11.64-9.24-.74-18.7-1.07-27.86.08-10.61,1.33-13.41-3.56-14.39-12.73-1.44-13.48-3.94-26.84-5.66-40.3-.73-5.71-3.26-7.68-9.06-7.56-16.09.35-32.21.47-48.29-.04-7.32-.23-10.07,2.43-10.91,9.48-1.79,14.88-4.55,29.65-6.34,44.53-.62,5.17-2.71,6.47-7.46,6.44-26.47-.15-52.95-.27-79.42.08-6.39.08-7.56-3.86-9.24-8.25-14.27-37.35-28.56-74.69-42.93-112-1.38-3.58-2.13-7.57-6.25-11.29Zm184.57-137.76c-7.97,52.7-15.83,105.13-23.9,157.53-.9,5.87,1.11,7.61,6.68,7.48,10.7-.24,21.49-.85,32.1.17,10.93,1.05,12.16-3.61,10.76-12.72-7.43-48.22-14.51-96.5-21.77-144.76-.41-2.72-.55-5.73-3.87-7.71Z"/>
  <path class="cls-1" d="m168.19,333.04c-4.36,28.5-8.77,57-13.08,85.5-6.78,44.83-13.69,89.64-20.08,134.53-1.16,8.12-4.39,10.6-12.29,10.01-9.25-.69-18.66-.86-27.88.04-8.2.8-10.34-2.95-11.44-9.93-5.75-36.31-11.76-72.59-17.75-108.86-5.91-35.77-11.92-71.53-18.14-108.82-3.39,5.89-2.26,10.58-2.26,15.03-.09,67.27-.21,134.53.12,201.8.04,8.36-2.02,11.68-10.66,10.68-10.87-1.27-25.5,4.71-31.71-2.58-5.39-6.32-1.87-20.46-1.87-31.15-.06-94.82.18-189.63-.32-284.45-.06-11.24,3.25-14.01,13.85-13.43,16.05.87,32.2.5,48.29.1,7.25-.18,9.64,2.47,10.77,9.65,11.25,71.23,22.92,142.4,34.54,213.57.44,2.72,1.58,5.32,4.2,7.91,3.74-24.47,7.53-48.93,11.21-73.42,7.37-49.08,14.75-98.17,21.93-147.28,1.11-7.56,3.99-10.87,12.32-10.53,16.79.69,33.63.48,50.44.08,7.57-.18,10.73,1.76,10.71,10.16-.25,103.76-.23,207.52,0,311.28.02,7.91-2.13,10.8-10.29,10.14-9.24-.74-18.63-.71-27.88,0-8.05.62-10.28-2-10.21-10.07.39-43.29.18-86.59.18-129.88,0-30,0-60,0-90l-2.68-.09Z"/>
  <path class="cls-1" d="m391.56,397.84c0,32.52,1.21,65.1-.29,97.55-2.15,46.65-33.24,73.33-80.14,71.03-48.87-2.4-75.37-29.5-75.66-78.51-.36-60.77-.39-121.54.04-182.31.29-41.31,20.76-68.06,57.57-75.42,16.9-3.38,34.13-2.96,50.87,2.23,27.46,8.52,45.06,31.61,47.29,62.52,2.47,34.27.39,68.61.32,102.92Zm-105.55-.57c0,29.32,0,58.64,0,87.96,0,5,.07,9.94,1.41,14.88,3.68,13.6,13.46,21.05,27.45,20.51,14.63-.56,23.81-8.81,25.78-23.57.75-5.65,1.19-11.39,1.19-17.08.09-55.07.1-110.13-.02-165.2-.01-6.77-.35-13.64-1.58-20.27-1.93-10.42-8.34-17.07-18.95-19.38-20.97-4.55-34.93,6.94-35.19,29.89-.35,30.75-.09,61.5-.12,92.25Z"/>
  <path class="cls-1" d="m318.82,117.92c3.52-27.71,12.92-51.9,30.75-71.79,14.1-15.72,30.49-29.29,50.73-36.87,18.11-6.78,36.57-9.19,55.3-1.96,8.06,3.11,8.56,6.81,1.05,11.19-14.01,8.17-26.42,17.92-36.06,31.36-8.7,12.13-13.84,25.66-18.97,39.35-10.97,29.26-30.23,49.46-61.52,57.07-9.44,2.3-14.23-1.26-16.61-9.7-1.83-6.5-3.29-13.11-4.67-18.66Z"/>
  <path class="cls-1" d="m481.58,53.94c.89,26.48-12.38,46.11-26.87,64.75-19.99,25.71-46.27,41.86-78.6,47.72-9.94,1.8-19.09-.74-28.11-4.4-1.98-.8-4.55-1.58-4.72-3.83-.25-3.23,2.98-3.51,5.21-4.29,18.56-6.43,34.79-16.32,47.4-31.63,6.96-8.45,10.68-18.5,13.74-28.79,8.53-28.74,27.14-49.73,51.12-66.49,10.17-7.11,13.85-5.69,17.76,5.97,2.41,7.18,3.51,14.55,3.08,20.99Z"/>
  <path class="cls-1" d="m316.4,139.76c-9.9-4.49-15.82-10.83-21.33-17.02-21.21-23.8-36.42-50.19-32.31-83.87.22-1.77.17-3.69.87-5.26,2.4-5.38,2.92-13.58,9.14-14.48,4.33-.63,5.36,7.36,8.11,11.33,9.81,14.22,21.53,26.56,35.99,36.02,4.91,3.21,5.77,6.31,3.29,11.31-9.56,19.3-11.64,39.25-3.76,61.98Z"/>
  <path class="cls-1" d="m366.66,22.3c-.93.74-2.28,1.92-3.74,2.95-12.37,8.77-21.95,20.24-30.72,32.36-3.5,4.84-6.13,5.39-11.06,1.91-15.97-11.28-28.99-25.04-38.58-42.14-3.47-6.19-2.1-9.42,4.28-12.29,16.63-7.49,33.3-5.75,49.97-.93,9.24,2.68,17.81,7.12,25.77,12.57,1.68,1.15,3.73,2.15,4.08,5.57Z"/>
  <path class="cls-1" d="m3.51,650.9c0-1.79-.57-3.83.1-5.31,2.64-5.78-6.68-16.27,6.35-17.74,19.12-2.16,28.04,3.04,30.75,16.88,4.24,21.68-13.14,37.04-33.88,30.13-3.33-1.11-3.25-3.28-3.27-5.74-.05-6.07-.02-12.15-.04-18.22Zm13.15,20.45c15.88-.38,22.29-8.14,20.54-23.74-1.45-12.89-10.72-19.09-24.63-16.97-4.22.64-5.22,2.7-5.18,6.41.1,8.18.54,16.4-.12,24.53-.67,8.24,2.42,11.23,9.39,9.77Z"/>
  <path class="cls-1" d="m725.04,656.9c6.43,13.51,12.87,17.04,24.1,14.82,4.09-.81,7.65-2.13,8.5-6.84.94-5.23-2.16-8.14-6.36-9.86-5.27-2.16-10.78-3.73-16.14-5.7-5.89-2.17-9.88-5.77-8.84-12.79,1.08-7.24,6.45-8.72,12.49-9.29,12.6-1.18,18.5,3.01,20.42,16.19-5.2-6.06-7.75-13.41-15.86-13.25-5.44.11-11.48-.26-12.96,6.55-1.39,6.38,3.83,8.52,8.64,10.35,5.33,2.03,10.82,3.66,16.03,5.95,5.13,2.26,7.3,6.49,6.56,12.2-.7,5.45-4.33,7.99-9.07,9.33-15.9,4.48-27.78-2.34-27.53-17.67Z"/>
  <path class="cls-1" d="m209.94,642.46c-3.39-9.1-9.7-13.18-19-12.18-4.07.44-7.95,1.85-8.83,6.44-.89,4.59,1.93,7.45,5.88,9.02,5.63,2.23,11.44,3.98,17.06,6.23,5.83,2.34,9.41,6.33,8.5,13.19-.95,7.13-6.04,9.09-12.09,9.86-14.77,1.89-23.24-2.46-25.45-13.03-.29-1.38-.56-2.84,1.35-3.39,6.92,12.12,14.05,15.7,25.04,12.88,3.81-.98,6.55-2.59,7.17-6.8.6-4.1-1.08-7.24-4.62-8.78-5.54-2.4-11.36-4.17-17.03-6.28-6.12-2.27-11.13-5.61-9.72-13.21,1.39-7.52,7.34-8.9,13.77-9.25,12.19-.65,17.68,3.57,17.98,15.29Z"/>
  <path class="cls-1" d="m670.71,651.72c-.2,14.6-8.75,23.74-21.93,23.46-12.9-.27-21.15-9.96-20.92-24.54.23-14.51,8.87-23.74,22-23.51,12.87.22,21.06,9.88,20.85,24.59Zm-4.03-.18c.13-13.25-6.41-21.37-17.25-21.42-10.49-.05-17.28,7.73-17.57,20.11-.31,13.16,6.09,21.51,16.79,21.9,11.03.41,17.9-7.44,18.03-20.59Z"/>
  <path class="cls-1" d="m447.82,628.88c0,9.24-.34,18.49.09,27.71.5,11,5.52,16.03,14.82,15.6,9.98-.46,13.38-6.62,13.51-15.73.12-8.89.48-17.78.77-26.67,0-.24.41-.46,2.31-2.46.88,14.28,2.71,26.99-1.13,39.31-2.53,8.12-10.37,8.83-17.87,8.55-7-.26-13-2.64-14.83-9.9-3.04-12.05-1.69-24.24-1.09-36.36,1.15-.02,2.29-.04,3.44-.05Z"/>
  <path class="cls-1" d="m265.04,673.68c4.6-14.09,8.77-28.36,14.03-42.2,2.08-5.47,8.63-5.46,10.57-.62,5.62,14.03,9.74,28.65,15.31,45.68-10.04-6.86-4.51-21.64-20.21-21.65-15.73-.01-11.11,13.83-19.7,18.79Zm19.88-46.45c-4.02,9.64-8.9,16.48-6.69,23.42.98,3.09,8.96,1.76,14.37.03-2.27-6.93-4.46-13.63-7.68-23.46Z"/>
  <path class="cls-1" d="m119.71,651.01c-3.73,2.67-6.81,2.32-9.43,1.83-10.88-2.06-11.37,4.24-10.95,12.31.24,4.5,1.53,6.28,6.18,6.34,5.53.07,11.24-1.19,16.77,3.2-8.03,0-16.06.15-24.08-.08-2.92-.08-2.69-2.84-2.69-4.91-.05-12.12.06-24.25-.09-36.37-.05-4.1,1.56-5.77,5.64-5.67,6.7.15,13.4.04,22.9.04-7.19,4.29-12.38,3.06-17.11,2.82-8.86-.45-7.17,5.43-7.44,10.62-.28,5.24.16,9.06,7.14,8.49,3.96-.32,8.27-1.23,13.16,1.38Z"/>
  <path class="cls-1" d="m573.46,628.81c0,14.05,0,28.1,0,42.16,0,2.59-1.12,3.69-3.89,3.74-3.12.06-5.3-.5-6.95-3.55-7.56-13.98-15.34-27.83-23.04-41.73.97-.59,1.95-1.19,2.92-1.78,8.25,14.69,16.5,29.38,24.76,44.07.72-.13,1.44-.25,2.17-.38v-42.57c1.35.01,2.7.02,4.04.03Z"/>
  <path class="cls-1" d="m358.85,627.64c4.84,8.13,9.68,16.27,14.58,24.51,6.71-7.17,9.03-17.41,17.24-23.68-5.91,15.07-18.86,27.6-16.49,46.28,1.53-18.6-10.9-31.18-18.37-45.69,1.01-.47,2.03-.95,3.04-1.42Z"/>
  <path class="cls-1" d="m534.71,674.14v-45.33c.63-.02,1.25-.04,1.88-.07v45.41c-.63,0-1.25-.01-1.88-.02Z"/>
</svg>